<svg class="cmap-toolbar-icon" width="20" height="20" xmlns="http://www.w3.org/2000/svg" viewBox="0 0 1000 1000"><path d="M1000 500q0 14-11 25l-142 143q-11 11-26 11t-25-11-10-25v-72h-215v215h72q14 0 25 10t11 25-11 25l-143 143q-10 11-25 11t-25-11l-143-143q-11-10-11-25t11-25 25-10h72v-215h-215v72q0 14-10 25t-25 11-25-11l-143-143q-11-11-11-25t11-25l143-143q10-11 25-11t25 11 10 25v72h215v-215h-72q-14 0-25-10t-11-25 11-26l143-142q11-11 25-11t25 11l143 142q11 11 11 26t-11 25-25 10h-72v215h215v-72q0-14 10-25t25-11 26 11l142 143q11 10 11 25z"/></svg>
