<svg class="cmap-icon" width="20" height="20" xmlns="http://www.w3.org/2000/svg" viewBox="0 0 928.6 1000"><path d="M571 446v36q0 7-5 13t-12 5h-125v125q0 7-6 13t-12 5h-36q-7 0-13-5t-5-13v-125h-125q-7 0-12-5t-6-13v-36q0-7 6-12t12-5h125v-125q0-8 5-13t13-5h36q7 0 12 5t6 13v125h125q7 0 12 5t5 12zm72 18q0-103-73-176t-177-74-177 74-73 176 73 177 177 73 177-73 73-177zm286 465q0 29-21 50t-51 21q-30 0-50-21l-191-191q-100 69-223 69-80 0-153-31t-125-84-84-125-31-153 31-152 84-126 125-84 153-31 153 31 125 84 84 126 31 152q0 123-69 223l191 191q21 21 21 51z"/></svg>
